# xmcd
#
# Track frame offsets: 
#        150
#        679
#        28748
#        53656
#        71138
#        73703
#        89679
#        104936
#        124367
#        128948
#        149314
#        166277
#        167856
#        186833
#        207849
#        229603
#
# Disc length: 4077 seconds
#
# Revision: 1
# Processed by: cddbd v1.5.2PL0 Copyright (c) Steve Scherf et al.
# Submitted via: ExactAudioCopyFreeDBPlugin 1.0
#
DISCID=f30feb10
DTITLE=方大同 - 方大同 - 危險世界
DYEAR=2014
DGENRE=Pop
TTITLE0=Welcome
TTITLE1=危險世界
TTITLE2=Peace Feat. Tia Ray
TTITLE3=小方
TTITLE4=SoundCheck
TTITLE5=黑白灰
TTITLE6=桃花運
TTITLE7=特別的人
TTITLE8=Weather Report
TTITLE9=天氣先生
TTITLE10=楓葉做的風玲
TTITLE11=Boarding
TTITLE12=巴黎
TTITLE13=愛不來
TTITLE14=彊屍
TTITLE15=Lights Up
EXTD=
EXTT0=
EXTT1=
EXTT2=
EXTT3=
EXTT4=
EXTT5=
EXTT6=
EXTT7=
EXTT8=
EXTT9=
EXTT10=
EXTT11=
EXTT12=
EXTT13=
EXTT14=
EXTT15=
PLAYORDER=
